<svg id="Group_149" data-name="Group 149" xmlns="http://www.w3.org/2000/svg" viewBox="0 0 112.957 80.317">
  <defs>
    <style>
      .cls-1 {
        fill: #ebbb4e;
      }
    </style>
  </defs>
  <path id="Path_7" data-name="Path 7" class="cls-1" d="M57.707,69.234A37.631,37.631,0,0,1,48.731,45.28a36.811,36.811,0,0,1,8.519-23.388,32.28,32.28,0,0,1,8.29-7.16V0H42.792V28.777H22.747V0H0V80.317H22.747V51.54h20.03V80.317H65.524V75.981A35.394,35.394,0,0,1,57.707,69.234Z"/>
  <g id="Group_33" data-name="Group 33" transform="translate(51.616 13.969)">
    <path id="Path_8" data-name="Path 8" class="cls-1" d="M399.441,136.521H390.3l8.534,5.267c-3.45,5.6-13.373,15.1-28.732,15.1a30.876,30.876,0,0,1-23.724-10.961A34.681,34.681,0,0,1,338.1,123.85a33.971,33.971,0,0,1,7.847-21.572A29.364,29.364,0,0,1,368.984,91.5c18.289,0,28.976,14.228,29.419,14.839L384.51,116.522v.092c-.26-.351-6.122-7.847-15.526-7.847s-13.633,8.885-13.633,15.1c0,6.641,5.084,15.786,14.747,15.786a17.02,17.02,0,0,0,10-3.1H369.076V122.72h30.365Zm-15.358-3.786a.09.09,0,0,0,.092-.092Z" transform="translate(-338.1 -91.5)"/>
  </g>
</svg>
