<svg id="Group_154" data-name="Group 154" xmlns="http://www.w3.org/2000/svg" viewBox="0 0 202.198 54.347">
  <defs>
    <style>
      .cls-1 {
        fill: #7a0296;
      }
    </style>
  </defs>
  <path id="Path_2" data-name="Path 2" class="cls-1" d="M54.265.4V54.665H43.408V32.951H10.857V54.665H0V.4H10.857V22.114H43.428V.4Z" transform="translate(0 -0.319)"/>
  <g id="Group_28" data-name="Group 28" transform="translate(140.227 0.081)">
    <path id="Path_3" data-name="Path 3" class="cls-1" d="M751.671,54.665H736.3L714.586,32.951H700.557V54.665H689.7V.4h38.061c.3,0,.874.02,1.688.081a16.627,16.627,0,0,1,2.907.488,20.35,20.35,0,0,1,3.477,1.281,14.063,14.063,0,0,1,3.477,2.44,16.942,16.942,0,0,1,3.09,4.29,15.64,15.64,0,0,1,1.5,7.38,17.076,17.076,0,0,1-2.2,8.743,14.458,14.458,0,0,1-6.323,5.795,15.522,15.522,0,0,1-3.05,1.24,17.993,17.993,0,0,1-2.6.569ZM727.253,22.094c.1,0,.508-.061,1.24-.183a6.459,6.459,0,0,0,2.155-.793,4.92,4.92,0,0,0,1.667-1.423,5.489,5.489,0,0,0,.752-3.314,5.144,5.144,0,0,0-1.2-3.843,3.78,3.78,0,0,0-2.216-1.1c-.874-.122-1.4-.183-1.545-.183H700.557V22.114h26.7Z" transform="translate(-689.7 -0.4)"/>
  </g>
  <g id="Group_29" data-name="Group 29" transform="translate(76.691)">
    <rect id="Rectangle_13" data-name="Rectangle 13" class="cls-1" width="43.164" height="10.857" transform="translate(0 43.489)"/>
    <rect id="Rectangle_14" data-name="Rectangle 14" class="cls-1" width="43.164" height="10.857"/>
    <rect id="Rectangle_15" data-name="Rectangle 15" class="cls-1" width="37.164" height="10.857" transform="translate(0 21.714)"/>
  </g>
  <g id="Group_30" data-name="Group 30" transform="translate(63.801 52.09)">
    <path id="Path_4" data-name="Path 4" class="cls-1" d="M313.8,258.457V256.2h2.419v2.257Z" transform="translate(-313.8 -256.2)"/>
  </g>
  <g id="Group_31" data-name="Group 31" transform="translate(128.842 52.09)">
    <path id="Path_5" data-name="Path 5" class="cls-1" d="M633.7,258.457V256.2h2.419v2.257Z" transform="translate(-633.7 -256.2)"/>
  </g>
</svg>
